<svg width="32" height="32" viewBox="0 0 32 32" fill="none" xmlns="http://www.w3.org/2000/svg">
<path d="M14.9219 28.7852C14.6172 28.7852 14.3594 28.6992 14.1484 28.5273C13.9453 28.3633 13.8047 28.1289 13.7266 27.8242L13.1172 25.2461C12.8906 25.168 12.668 25.0859 12.4492 25C12.2305 24.9141 12.0234 24.8242 11.8281 24.7305L9.57812 26.1133C9.32031 26.2695 9.05469 26.3359 8.78125 26.3125C8.51562 26.2891 8.27734 26.1719 8.06641 25.9609L6.56641 24.4609C6.35547 24.25 6.23438 24.0039 6.20312 23.7227C6.17969 23.4414 6.25391 23.1758 6.42578 22.9258L7.79688 20.6875C7.70312 20.4844 7.61328 20.2773 7.52734 20.0664C7.44141 19.8555 7.36719 19.6445 7.30469 19.4336L4.70312 18.8125C4.39844 18.7422 4.16406 18.6055 4 18.4023C3.83594 18.1914 3.75391 17.9336 3.75391 17.6289V15.5078C3.75391 15.2109 3.83594 14.9609 4 14.7578C4.16406 14.5469 4.39844 14.4062 4.70312 14.3359L7.28125 13.7148C7.35156 13.4727 7.42969 13.2461 7.51562 13.0352C7.60938 12.8242 7.69531 12.625 7.77344 12.4375L6.40234 10.1641C6.23828 9.90625 6.16406 9.64453 6.17969 9.37891C6.20312 9.11328 6.32422 8.875 6.54297 8.66406L8.06641 7.15234C8.27734 6.94141 8.51172 6.82031 8.76953 6.78906C9.02734 6.75781 9.28516 6.82031 9.54297 6.97656L11.8164 8.38281C12.0117 8.28125 12.2188 8.1875 12.4375 8.10156C12.6641 8.00781 12.8906 7.92188 13.1172 7.84375L13.7266 5.25391C13.8047 4.95703 13.9453 4.72266 14.1484 4.55078C14.3594 4.37891 14.6172 4.29297 14.9219 4.29297H17.0781C17.3828 4.29297 17.6367 4.37891 17.8398 4.55078C18.0508 4.72266 18.1914 4.95703 18.2617 5.25391L18.8711 7.86719C19.1133 7.94531 19.3398 8.02734 19.5508 8.11328C19.7695 8.19922 19.9727 8.29297 20.1602 8.39453L22.457 6.97656C22.707 6.82031 22.957 6.76172 23.207 6.80078C23.4648 6.83984 23.7031 6.95703 23.9219 7.15234L25.457 8.66406C25.6758 8.875 25.793 9.11328 25.8086 9.37891C25.8242 9.64453 25.7539 9.90625 25.5977 10.1641L24.2148 12.4375C24.293 12.625 24.375 12.8242 24.4609 13.0352C24.5547 13.2461 24.6406 13.4727 24.7188 13.7148L27.2969 14.3359C27.5938 14.4062 27.8242 14.5469 27.9883 14.7578C28.1602 14.9609 28.2461 15.2109 28.2461 15.5078V17.6289C28.2461 17.9336 28.1602 18.1914 27.9883 18.4023C27.8242 18.6055 27.5938 18.7422 27.2969 18.8125L24.6953 19.4336C24.625 19.6445 24.5469 19.8555 24.4609 20.0664C24.3828 20.2773 24.293 20.4844 24.1914 20.6875L25.5742 22.9258C25.7461 23.1758 25.8164 23.4414 25.7852 23.7227C25.7617 24.0039 25.6445 24.25 25.4336 24.4609L23.9219 25.9609C23.7109 26.1719 23.4688 26.2891 23.1953 26.3125C22.9297 26.3359 22.6719 26.2695 22.4219 26.1133L20.1602 24.7305C19.9648 24.8242 19.7578 24.9141 19.5391 25C19.3203 25.0859 19.0977 25.168 18.8711 25.2461L18.2617 27.8242C18.1914 28.1289 18.0508 28.3633 17.8398 28.5273C17.6367 28.6992 17.3828 28.7852 17.0781 28.7852H14.9219ZM16 20.6758C16.7578 20.6758 17.4492 20.4922 18.0742 20.125C18.6992 19.75 19.1992 19.25 19.5742 18.625C19.9492 17.9922 20.1367 17.2969 20.1367 16.5391C20.1367 15.7812 19.9492 15.0898 19.5742 14.4648C19.1992 13.832 18.6992 13.332 18.0742 12.9648C17.4492 12.5898 16.7578 12.4023 16 12.4023C15.2344 12.4023 14.5391 12.5898 13.9141 12.9648C13.2891 13.332 12.7891 13.832 12.4141 14.4648C12.0469 15.0898 11.8633 15.7812 11.8633 16.5391C11.8633 17.2969 12.0469 17.9922 12.4141 18.625C12.7891 19.25 13.2891 19.75 13.9141 20.125C14.5391 20.4922 15.2344 20.6758 16 20.6758Z" fill="#FCD2B6"/>
</svg>
