<svg width="32" height="32" viewBox="0 0 32 32" fill="none" xmlns="http://www.w3.org/2000/svg">
<path d="M17.9805 28.2461C17.7617 28.2852 17.5547 28.2422 17.3594 28.1172C17.1719 27.9922 17.0547 27.8125 17.0078 27.5781C16.9531 27.2656 16.9023 26.9766 16.8555 26.7109C16.8164 26.4453 16.7812 26.1758 16.75 25.9023C16.7188 25.6289 16.6914 25.3281 16.668 25L11.0547 21.168C10.5703 21.457 10.0625 21.6992 9.53125 21.8945C9 22.0898 8.38672 22.1875 7.69141 22.1875C7.23047 22.1875 6.73828 22.0898 6.21484 21.8945C5.69922 21.6914 5.20312 21.4258 4.72656 21.0977C4.25 20.7695 3.83984 20.4141 3.49609 20.0312C3.16016 19.6406 2.94141 19.2539 2.83984 18.8711C2.69922 18.3242 2.59766 17.7227 2.53516 17.0664C2.48047 16.4102 2.46094 15.7773 2.47656 15.168L5.94531 16.7148C6.15625 16.8164 6.36328 16.8281 6.56641 16.75C6.76953 16.6719 6.91797 16.5273 7.01172 16.3164C7.11328 16.1211 7.12109 15.9219 7.03516 15.7188C6.94922 15.5156 6.79297 15.3633 6.56641 15.2617L2.6875 13.5039C2.96875 12.2227 3.48438 11.0234 4.23438 9.90625C4.99219 8.78906 5.95312 7.82031 7.11719 7C8.28125 6.17969 9.61719 5.57813 11.125 5.19531V8.06641C11.125 8.30859 11.1992 8.51172 11.3477 8.67578C11.5039 8.83203 11.6992 8.91016 11.9336 8.91016C12.1523 8.91016 12.3359 8.82812 12.4844 8.66406C12.6406 8.5 12.7188 8.29297 12.7188 8.04297V4.90234C13.0234 4.85547 13.3203 4.82422 13.6094 4.80859C13.9062 4.79297 14.2148 4.78516 14.5352 4.78516V8.62891C14.5352 8.87109 14.6094 9.07031 14.7578 9.22656C14.9141 9.38281 15.1094 9.46094 15.3438 9.46094C15.5703 9.46094 15.7617 9.38281 15.918 9.22656C16.0742 9.0625 16.1523 8.85547 16.1523 8.60547V4.85547C16.457 4.88672 16.7617 4.92578 17.0664 4.97266C17.3711 5.01172 17.6719 5.0625 17.9688 5.125V8.07812C17.9688 8.32031 18.043 8.52344 18.1914 8.6875C18.3477 8.84375 18.5391 8.92188 18.7656 8.92188C18.9922 8.92188 19.1836 8.83984 19.3398 8.67578C19.4961 8.51172 19.5742 8.30469 19.5742 8.05469V5.54688C21.0586 6.03906 22.3555 6.73047 23.4648 7.62109C24.582 8.51172 25.4883 9.54688 26.1836 10.7266C26.8867 11.9062 27.3594 13.1719 27.6016 14.5234C27.7031 15.1016 27.8438 15.6172 28.0234 16.0703C28.2109 16.5234 28.4414 16.8906 28.7148 17.1719C29.0508 17.5234 29.2656 17.793 29.3594 17.9805C29.4531 18.1602 29.4688 18.3359 29.4062 18.5078C29.3516 18.8359 29.1328 19.1328 28.75 19.3984C28.3672 19.6641 27.7891 19.875 27.0156 20.0312C26.2422 20.1797 25.2461 20.2539 24.0273 20.2539C23.2617 20.2539 22.5469 20.1992 21.8828 20.0898C21.2188 19.9727 20.5898 19.8438 19.9961 19.7031C19.4102 19.5547 18.8477 19.4297 18.3086 19.3281C18.2852 19.8516 18.2656 20.3672 18.25 20.875C18.2422 21.3828 18.2383 21.8711 18.2383 22.3398C18.2383 22.8086 18.2422 23.2539 18.25 23.6758C18.2578 24.457 18.2969 25.1172 18.3672 25.6562C18.4453 26.1953 18.5352 26.7422 18.6367 27.2969C18.6758 27.5469 18.6406 27.7578 18.5312 27.9297C18.4219 28.1016 18.2383 28.207 17.9805 28.2461ZM12.5781 20.2656L16.5625 22.9492C16.5469 22.3633 16.543 21.75 16.5508 21.1094C16.5664 20.4609 16.5859 19.7969 16.6094 19.1172H16.5508C15.6992 19.1172 14.9609 19.2344 14.3359 19.4688C13.7109 19.6953 13.125 19.9609 12.5781 20.2656Z" fill="#FCD2B6"/>
</svg>
