<svg width="42" height="32" viewBox="0 0 42 32" fill="none" xmlns="http://www.w3.org/2000/svg">
<path d="M22.8047 20.2656C21.7344 20.2656 20.7188 20.1211 19.7578 19.832C18.7969 19.543 17.9062 19.125 17.0859 18.5781C16.2734 18.0312 15.5352 17.375 14.8711 16.6094L16.6758 15.9648L7.82812 23.0078L6.59766 21.4141L15.9141 13.9961C17.0078 13.1289 18.0078 12.4375 18.9141 11.9219C19.8203 11.3984 20.6758 11.0234 21.4805 10.7969C22.293 10.5625 23.0938 10.4492 23.8828 10.457C25 10.4727 25.9375 10.6914 26.6953 11.1133C27.4531 11.5273 28.0234 12.0977 28.4062 12.8242C28.7969 13.5508 28.9922 14.3867 28.9922 15.332C28.9922 16.2773 28.7422 17.1211 28.2422 17.8633C27.75 18.6055 27.0391 19.1914 26.1094 19.6211C25.1875 20.0508 24.0859 20.2656 22.8047 20.2656ZM7.40625 28.6562C6.5 28.6562 5.65234 28.4883 4.86328 28.1523C4.08203 27.8164 3.39453 27.3516 2.80078 26.7578C2.20703 26.1641 1.74219 25.4766 1.40625 24.6953C1.07031 23.9062 0.902344 23.0664 0.902344 22.1758C0.902344 21.2773 1.07031 20.4375 1.40625 19.6562C1.74219 18.8672 2.20703 18.1758 2.80078 17.582C3.39453 16.9883 4.08203 16.5234 4.86328 16.1875C5.65234 15.8438 6.5 15.6719 7.40625 15.6719C8.29688 15.6719 9.13281 15.8438 9.91406 16.1875C10.6953 16.5234 11.3828 16.9883 11.9766 17.582C12.5703 18.1758 13.0312 18.8672 13.3594 19.6562C13.6953 20.4375 13.8633 21.2773 13.8633 22.1758C13.8633 23.0664 13.6953 23.9023 13.3594 24.6836C13.0312 25.4648 12.5703 26.1523 11.9766 26.7461C11.3828 27.3477 10.6953 27.8164 9.91406 28.1523C9.13281 28.4883 8.29688 28.6562 7.40625 28.6562ZM7.39453 26.6172C8.21484 26.6172 8.96094 26.418 9.63281 26.0195C10.3047 25.6211 10.8398 25.0859 11.2383 24.4141C11.6445 23.7344 11.8477 22.9844 11.8477 22.1641C11.8477 21.3359 11.6445 20.5859 11.2383 19.9141C10.8398 19.2422 10.3047 18.707 9.63281 18.3086C8.96094 17.9102 8.21484 17.7109 7.39453 17.7109C6.55859 17.7109 5.80469 17.9102 5.13281 18.3086C4.46094 18.707 3.92578 19.2422 3.52734 19.9141C3.12891 20.5859 2.92969 21.3359 2.92969 22.1641C2.92969 22.9844 3.12891 23.7344 3.52734 24.4141C3.92578 25.0859 4.46094 25.6211 5.13281 26.0195C5.80469 26.418 6.55859 26.6172 7.39453 26.6172ZM9.12891 13.0469C8.84766 13.0469 8.60547 12.9492 8.40234 12.7539C8.20703 12.5508 8.10938 12.3047 8.10938 12.0156C8.10938 11.7344 8.20703 11.4922 8.40234 11.2891C8.60547 11.0859 8.84766 10.9844 9.12891 10.9844H14.6719C14.9531 10.9844 15.1953 11.0859 15.3984 11.2891C15.6016 11.4922 15.7031 11.7344 15.7031 12.0156C15.7031 12.3047 15.6016 12.5508 15.3984 12.7539C15.2031 12.9492 14.9609 13.0469 14.6719 13.0469H9.12891ZM34.6172 28.6562C33.7188 28.6562 32.875 28.4883 32.0859 28.1523C31.3047 27.8164 30.6172 27.3516 30.0234 26.7578C29.4297 26.1641 28.9648 25.4766 28.6289 24.6953C28.293 23.9062 28.125 23.0664 28.125 22.1758C28.125 21.2773 28.293 20.4375 28.6289 19.6562C28.9648 18.8672 29.4297 18.1758 30.0234 17.582C30.6172 16.9883 31.3047 16.5234 32.0859 16.1875C32.875 15.8438 33.7188 15.6719 34.6172 15.6719C35.5156 15.6719 36.3555 15.8438 37.1367 16.1875C37.918 16.5234 38.6016 16.9883 39.1875 17.582C39.7812 18.1758 40.2461 18.8672 40.582 19.6562C40.918 20.4375 41.0859 21.2773 41.0859 22.1758C41.0859 23.0664 40.918 23.9023 40.582 24.6836C40.2461 25.4648 39.7812 26.1523 39.1875 26.7461C38.6016 27.3477 37.918 27.8164 37.1367 28.1523C36.3555 28.4883 35.5156 28.6562 34.6172 28.6562ZM34.6055 26.6172C35.4336 26.6172 36.1836 26.418 36.8555 26.0195C37.5273 25.6211 38.0625 25.0859 38.4609 24.4141C38.8594 23.7344 39.0586 22.9844 39.0586 22.1641C39.0586 21.3359 38.8594 20.5859 38.4609 19.9141C38.0625 19.2422 37.5273 18.707 36.8555 18.3086C36.1836 17.9102 35.4336 17.7109 34.6055 17.7109C33.7773 17.7109 33.0273 17.9102 32.3555 18.3086C31.6836 18.707 31.1445 19.2422 30.7383 19.9141C30.3398 20.5859 30.1406 21.3359 30.1406 22.1641C30.1406 22.9844 30.3398 23.7344 30.7383 24.4141C31.1445 25.0859 31.6836 25.6211 32.3555 26.0195C33.0273 26.418 33.7773 26.6172 34.6055 26.6172ZM34.5938 23.8164C34.1172 23.8164 33.7266 23.6562 33.4219 23.3359C33.1172 23.0078 32.9688 22.6172 32.9766 22.1641C32.9766 21.6875 33.1289 21.293 33.4336 20.9805C33.7383 20.6602 34.125 20.5 34.5938 20.5C35.0547 20.5 35.4453 20.6602 35.7656 20.9805C36.0859 21.3008 36.2461 21.6953 36.2461 22.1641C36.2461 22.625 36.082 23.0156 35.7539 23.3359C35.4336 23.6562 35.0469 23.8164 34.5938 23.8164ZM33.668 22.4219L27.7617 6.58984C27.7305 6.51172 27.6641 6.47266 27.5625 6.47266H24.4922C24.2031 6.47266 23.957 6.375 23.7539 6.17969C23.5586 5.97656 23.4609 5.73438 23.4609 5.45312C23.4609 5.16406 23.5586 4.92188 23.7539 4.72656C23.957 4.52344 24.2031 4.42188 24.4922 4.42188H27.9961C28.3633 4.42188 28.668 4.48828 28.9102 4.62109C29.1523 4.75391 29.3281 4.97656 29.4375 5.28906L35.6016 21.8008L33.668 22.4219ZM35.0039 12.9883C34.5977 12.957 34.2227 12.8281 33.8789 12.6016C33.5039 12.3594 33.2188 12.043 33.0234 11.6523C32.8359 11.2617 32.7539 10.8477 32.7773 10.4102C32.8008 9.97266 32.9375 9.57031 33.1875 9.20312C33.4062 8.86719 33.6914 8.60156 34.043 8.40625C34.2539 8.29688 34.4336 8.28516 34.582 8.37109C34.7305 8.45703 34.8281 8.61328 34.875 8.83984L35.5781 12.2383C35.625 12.457 35.5977 12.6445 35.4961 12.8008C35.3945 12.957 35.2305 13.0195 35.0039 12.9883ZM7.35938 23.8281C6.89062 23.8281 6.50391 23.6641 6.19922 23.3359C5.89453 23.0078 5.74219 22.6172 5.74219 22.1641C5.75 21.6953 5.90625 21.3047 6.21094 20.9922C6.51562 20.6719 6.89844 20.5117 7.35938 20.5117C7.82812 20.5117 8.21875 20.6719 8.53125 20.9922C8.85156 21.3047 9.01172 21.6953 9.01172 22.1641C9.01172 22.625 8.85156 23.0195 8.53125 23.3477C8.21094 23.668 7.82031 23.8281 7.35938 23.8281ZM16.9922 24.7539C16.7109 24.7539 16.4688 24.6562 16.2656 24.4609C16.0625 24.2578 15.9609 24.0117 15.9609 23.7227C15.9609 23.4414 16.0625 23.2031 16.2656 23.0078C16.4688 22.8047 16.7109 22.7031 16.9922 22.7031H19.7344C19.9062 22.7031 20.043 22.6484 20.1445 22.5391L23.3555 18.918L26.2266 18.7891L21.4805 24.168C21.293 24.3945 21.1133 24.5508 20.9414 24.6367C20.7695 24.7148 20.5352 24.7539 20.2383 24.7539H16.9922Z" fill="#FCD2B6"/>
</svg>
